<svg xmlns="http://www.w3.org/2000/svg" viewBox="0 0 720 720" role="img" aria-labelledby="title desc">
<title id="title">asparagus</title><desc id="desc">Clean product-only grocery illustration on a warm off-white background.</desc>
<defs><radialGradient id="bg" cx="50%" cy="42%" r="72%"><stop offset="0%" stop-color="#fffdf8"/><stop offset="100%" stop-color="#fff4e4"/></radialGradient><filter id="shadow" x="-20%" y="-20%" width="140%" height="150%"><feDropShadow dx="0" dy="22" stdDeviation="18" flood-color="#1b2a1f" flood-opacity=".16"/></filter></defs>
<rect width="720" height="720" fill="url(#bg)"/><ellipse cx="360" cy="540" rx="210" ry="38" fill="#d9c9ad" opacity=".22"/><g filter="url(#shadow)" transform="translate(0 0)"><path d="M260 470 L292 180" stroke="#efe3c1" stroke-width="16" stroke-linecap="round"/><path d="M290 175 L310 210 L270 210Z" fill="#efe3c1"/><path d="M288 470 L314 180" stroke="#d7c99f" stroke-width="16" stroke-linecap="round"/><path d="M312 175 L332 210 L292 210Z" fill="#d7c99f"/><path d="M316 470 L336 180" stroke="#8b9b55" stroke-width="16" stroke-linecap="round"/><path d="M334 175 L354 210 L314 210Z" fill="#8b9b55"/><path d="M344 470 L358 180" stroke="#efe3c1" stroke-width="16" stroke-linecap="round"/><path d="M356 175 L376 210 L336 210Z" fill="#efe3c1"/><path d="M372 470 L380 180" stroke="#d7c99f" stroke-width="16" stroke-linecap="round"/><path d="M378 175 L398 210 L358 210Z" fill="#d7c99f"/><path d="M400 470 L402 180" stroke="#8b9b55" stroke-width="16" stroke-linecap="round"/><path d="M400 175 L420 210 L380 210Z" fill="#8b9b55"/><path d="M428 470 L424 180" stroke="#efe3c1" stroke-width="16" stroke-linecap="round"/><path d="M422 175 L442 210 L402 210Z" fill="#efe3c1"/></g></svg>