<svg xmlns="http://www.w3.org/2000/svg" viewBox="0 0 720 720" role="img" aria-labelledby="title desc">
<title id="title">beets</title><desc id="desc">Clean product-only grocery illustration on a warm off-white background.</desc>
<defs><radialGradient id="bg" cx="50%" cy="42%" r="72%"><stop offset="0%" stop-color="#fffdf8"/><stop offset="100%" stop-color="#fff4e4"/></radialGradient><filter id="shadow" x="-20%" y="-20%" width="140%" height="150%"><feDropShadow dx="0" dy="22" stdDeviation="18" flood-color="#1b2a1f" flood-opacity=".16"/></filter></defs>
<rect width="720" height="720" fill="url(#bg)"/><ellipse cx="360" cy="540" rx="210" ry="38" fill="#d9c9ad" opacity=".22"/><g filter="url(#shadow)" transform="translate(18 -8)"><ellipse cx="355" cy="360" rx="118" ry="108" fill="#a62957" opacity="1" transform="rotate(0 355 360)"/><ellipse cx="390" cy="352" rx="70" ry="90" fill="#d95180" opacity="0.75" transform="rotate(10 390 352)"/><path d="M 320 215 C 352.5 192.5, 375 217.5, 320 240 C 265 217.5, 287.5 192.5, 320 215 Z" fill="#6fa045" transform="rotate(-38 320 215)"/><path d="M 375 205 C 412.7 180.7, 438.8 207.7, 375 232 C 311.2 207.7, 337.3 180.7, 375 205 Z" fill="#78aa4e" transform="rotate(0 375 205)"/><path d="M 430 220 C 462.5 197.5, 485 222.5, 430 245 C 375 222.5, 397.5 197.5, 430 220 Z" fill="#5f923e" transform="rotate(35 430 220)"/><path d="M355 462 C345 500 330 520 315 535" stroke="#8a2048" stroke-width="9" fill="none" stroke-linecap="round"/></g></svg>