<svg xmlns="http://www.w3.org/2000/svg" viewBox="0 0 720 720" role="img" aria-labelledby="title desc">
<title id="title">bell peppers</title><desc id="desc">Clean product-only grocery illustration on a warm off-white background.</desc>
<defs><radialGradient id="bg" cx="50%" cy="42%" r="72%"><stop offset="0%" stop-color="#fffdf8"/><stop offset="100%" stop-color="#fff4e4"/></radialGradient><filter id="shadow" x="-20%" y="-20%" width="140%" height="150%"><feDropShadow dx="0" dy="22" stdDeviation="18" flood-color="#1b2a1f" flood-opacity=".16"/></filter></defs>
<rect width="720" height="720" fill="url(#bg)"/><ellipse cx="360" cy="540" rx="210" ry="38" fill="#d9c9ad" opacity=".22"/><g filter="url(#shadow)" transform="translate(18 -8)"><ellipse cx="280" cy="325" rx="75" ry="105" fill="#cf3530" opacity="1" transform="rotate(-8 280 325)"/><ellipse cx="370" cy="315" rx="82" ry="115" fill="#f2b533" opacity="1" transform="rotate(2 370 315)"/><ellipse cx="465" cy="330" rx="78" ry="108" fill="#ed7d31" opacity="1" transform="rotate(10 465 330)"/><path d="M350 205 C 370 170, 370 280, 390 245" fill="none" stroke="#678d3f" stroke-width="10" stroke-linecap="round"/><path d="M 395 210 C 421 193.8, 439 211.8, 395 228 C 351 211.8, 369 193.8, 395 210 Z" fill="#77a34c" transform="rotate(20 395 210)"/></g></svg>