<svg xmlns="http://www.w3.org/2000/svg" viewBox="0 0 720 720" role="img" aria-labelledby="title desc">
<title id="title">blueberries</title><desc id="desc">Clean product-only grocery illustration on a warm off-white background.</desc>
<defs><radialGradient id="bg" cx="50%" cy="42%" r="72%"><stop offset="0%" stop-color="#fffdf8"/><stop offset="100%" stop-color="#fff4e4"/></radialGradient><filter id="shadow" x="-20%" y="-20%" width="140%" height="150%"><feDropShadow dx="0" dy="22" stdDeviation="18" flood-color="#1b2a1f" flood-opacity=".16"/></filter></defs>
<rect width="720" height="720" fill="url(#bg)"/><ellipse cx="360" cy="540" rx="210" ry="38" fill="#d9c9ad" opacity=".22"/><g filter="url(#shadow)" transform="translate(18 -8)"><ellipse cx="260" cy="285" rx="42" ry="40" fill="#2b4c9a" opacity="1" transform="rotate(0 260 285)"/><ellipse cx="330" cy="285" rx="42" ry="40" fill="#5069b5" opacity="1" transform="rotate(8 330 285)"/><ellipse cx="400" cy="285" rx="42" ry="40" fill="#6e86c8" opacity="1" transform="rotate(16 400 285)"/><ellipse cx="470" cy="285" rx="42" ry="40" fill="#2b4c9a" opacity="1" transform="rotate(24 470 285)"/><ellipse cx="260" cy="347" rx="42" ry="40" fill="#5069b5" opacity="1" transform="rotate(32 260 347)"/><ellipse cx="330" cy="347" rx="42" ry="40" fill="#6e86c8" opacity="1" transform="rotate(40 330 347)"/><ellipse cx="400" cy="347" rx="42" ry="40" fill="#2b4c9a" opacity="1" transform="rotate(48 400 347)"/><ellipse cx="470" cy="347" rx="42" ry="40" fill="#5069b5" opacity="1" transform="rotate(56 470 347)"/><ellipse cx="260" cy="409" rx="42" ry="40" fill="#6e86c8" opacity="1" transform="rotate(64 260 409)"/><ellipse cx="330" cy="409" rx="42" ry="40" fill="#2b4c9a" opacity="1" transform="rotate(72 330 409)"/><ellipse cx="400" cy="409" rx="42" ry="40" fill="#5069b5" opacity="1" transform="rotate(80 400 409)"/><path d="M 405 235 C 428.4 218.8, 444.6 236.8, 405 253 C 365.4 236.8, 381.6 218.8, 405 235 Z" fill="#6d9145" transform="rotate(20 405 235)"/></g></svg>