<svg xmlns="http://www.w3.org/2000/svg" viewBox="0 0 720 720" role="img" aria-labelledby="title desc">
<title id="title">cherries</title><desc id="desc">Clean product-only grocery illustration on a warm off-white background.</desc>
<defs><radialGradient id="bg" cx="50%" cy="42%" r="72%"><stop offset="0%" stop-color="#fffdf8"/><stop offset="100%" stop-color="#fff4e4"/></radialGradient><filter id="shadow" x="-20%" y="-20%" width="140%" height="150%"><feDropShadow dx="0" dy="22" stdDeviation="18" flood-color="#1b2a1f" flood-opacity=".16"/></filter></defs>
<rect width="720" height="720" fill="url(#bg)"/><ellipse cx="360" cy="540" rx="210" ry="38" fill="#d9c9ad" opacity=".22"/><g filter="url(#shadow)" transform="translate(18 -8)"><path d="M330 215 C 315 180, 315 350, 300 315" fill="none" stroke="#617d35" stroke-width="6" stroke-linecap="round"/><path d="M385 212 C 407.5 177, 407.5 353, 430 318" fill="none" stroke="#617d35" stroke-width="6" stroke-linecap="round"/><ellipse cx="298" cy="345" rx="62" ry="64" fill="#9e1f32" opacity="1" transform="rotate(0 298 345)"/><ellipse cx="432" cy="348" rx="66" ry="68" fill="#d43d4b" opacity="1" transform="rotate(0 432 348)"/><path d="M 392 205 C 419.3 188.8, 438.2 206.8, 392 223 C 345.8 206.8, 364.7 188.8, 392 205 Z" fill="#6f9144" transform="rotate(22 392 205)"/></g></svg>