<svg xmlns="http://www.w3.org/2000/svg" viewBox="0 0 720 720" role="img" aria-labelledby="title desc">
<title id="title">fuji apples</title><desc id="desc">Clean product-only grocery illustration on a warm off-white background.</desc>
<defs><radialGradient id="bg" cx="50%" cy="42%" r="72%"><stop offset="0%" stop-color="#fffdf8"/><stop offset="100%" stop-color="#fff4e4"/></radialGradient><filter id="shadow" x="-20%" y="-20%" width="140%" height="150%"><feDropShadow dx="0" dy="22" stdDeviation="18" flood-color="#1b2a1f" flood-opacity=".16"/></filter></defs>
<rect width="720" height="720" fill="url(#bg)"/><ellipse cx="360" cy="540" rx="210" ry="38" fill="#d9c9ad" opacity=".22"/><g filter="url(#shadow)" transform="translate(0 0)"><ellipse cx="300" cy="310" rx="105" ry="125" fill="#c94138" opacity="1" transform="rotate(-8 300 310)"/><ellipse cx="420" cy="305" rx="112" ry="130" fill="#f0644a" opacity="1" transform="rotate(9 420 305)"/><path d="M368 180 C 375 145, 375 270, 382 235" fill="none" stroke="#7b5536" stroke-width="10" stroke-linecap="round"/><path d="M 420 185 C 451.2 163.4, 472.8 187.4, 420 209 C 367.2 187.4, 388.8 163.4, 420 185 Z" fill="#6f9f45" transform="rotate(28 420 185)"/><ellipse cx="260" cy="275" rx="20" ry="36" fill="#fff5df" opacity="0.3" transform="rotate(-35 260 275)"/></g></svg>