<svg xmlns="http://www.w3.org/2000/svg" viewBox="0 0 720 720" role="img" aria-labelledby="title desc">
<title id="title">grapes</title><desc id="desc">Clean product-only grocery illustration on a warm off-white background.</desc>
<defs><radialGradient id="bg" cx="50%" cy="42%" r="72%"><stop offset="0%" stop-color="#fffdf8"/><stop offset="100%" stop-color="#fff4e4"/></radialGradient><filter id="shadow" x="-20%" y="-20%" width="140%" height="150%"><feDropShadow dx="0" dy="22" stdDeviation="18" flood-color="#1b2a1f" flood-opacity=".16"/></filter></defs>
<rect width="720" height="720" fill="url(#bg)"/><ellipse cx="360" cy="540" rx="210" ry="38" fill="#d9c9ad" opacity=".22"/><g filter="url(#shadow)" transform="translate(0 0)"><path d="M370 190 C 365 155, 365 295, 360 260" fill="none" stroke="#6c7d3c" stroke-width="7" stroke-linecap="round"/><ellipse cx="300" cy="260" rx="31" ry="34" fill="#3e2459" opacity="1" transform="rotate(0 300 260)"/><ellipse cx="348" cy="260" rx="31" ry="34" fill="#5b3d7a" opacity="1" transform="rotate(9 348 260)"/><ellipse cx="396" cy="260" rx="31" ry="34" fill="#86a64f" opacity="1" transform="rotate(18 396 260)"/><ellipse cx="444" cy="260" rx="31" ry="34" fill="#3e2459" opacity="1" transform="rotate(27 444 260)"/><ellipse cx="320" cy="315" rx="31" ry="34" fill="#5b3d7a" opacity="1" transform="rotate(36 320 315)"/><ellipse cx="368" cy="315" rx="31" ry="34" fill="#86a64f" opacity="1" transform="rotate(45 368 315)"/><ellipse cx="416" cy="315" rx="31" ry="34" fill="#3e2459" opacity="1" transform="rotate(54 416 315)"/><ellipse cx="464" cy="315" rx="31" ry="34" fill="#5b3d7a" opacity="1" transform="rotate(63 464 315)"/><ellipse cx="300" cy="370" rx="31" ry="34" fill="#86a64f" opacity="1" transform="rotate(72 300 370)"/><ellipse cx="348" cy="370" rx="31" ry="34" fill="#3e2459" opacity="1" transform="rotate(81 348 370)"/><ellipse cx="396" cy="370" rx="31" ry="34" fill="#5b3d7a" opacity="1" transform="rotate(90 396 370)"/><ellipse cx="444" cy="370" rx="31" ry="34" fill="#86a64f" opacity="1" transform="rotate(99 444 370)"/><ellipse cx="320" cy="425" rx="31" ry="34" fill="#3e2459" opacity="1" transform="rotate(108 320 425)"/><path d="M 405 205 C 433.6 187, 453.4 207, 405 225 C 356.6 207, 376.4 187, 405 205 Z" fill="#6f9144" transform="rotate(24 405 205)"/></g></svg>