<svg xmlns="http://www.w3.org/2000/svg" viewBox="0 0 720 720" role="img" aria-labelledby="title desc">
<title id="title">heirloom tomatoes</title><desc id="desc">Clean product-only grocery illustration on a warm off-white background.</desc>
<defs><radialGradient id="bg" cx="50%" cy="42%" r="72%"><stop offset="0%" stop-color="#fffdf8"/><stop offset="100%" stop-color="#fff4e4"/></radialGradient><filter id="shadow" x="-20%" y="-20%" width="140%" height="150%"><feDropShadow dx="0" dy="22" stdDeviation="18" flood-color="#1b2a1f" flood-opacity=".16"/></filter></defs>
<rect width="720" height="720" fill="url(#bg)"/><ellipse cx="360" cy="540" rx="210" ry="38" fill="#d9c9ad" opacity=".22"/><g filter="url(#shadow)" transform="translate(0 0)"><ellipse cx="260" cy="300" rx="92" ry="82" fill="#c7322f" opacity="1" transform="rotate(-8 260 300)"/><ellipse cx="370" cy="305" rx="108" ry="88" fill="#e56a3f" opacity="1" transform="rotate(6 370 305)"/><ellipse cx="480" cy="296" rx="88" ry="78" fill="#f3a447" opacity="1" transform="rotate(10 480 296)"/><path d="M250 225 C 380 190, 380 260, 510 225" fill="none" stroke="#5f7d3d" stroke-width="8" stroke-linecap="round"/><path d="M 365 215 C 393.6 195.2, 413.4 217.2, 365 237 C 316.6 217.2, 336.4 195.2, 365 215 Z" fill="#5f8f3c" transform="rotate(-25 365 215)"/><path d="M 405 220 C 431 202, 449 222, 405 240 C 361 222, 379 202, 405 220 Z" fill="#6fa247" transform="rotate(28 405 220)"/></g></svg>