<svg xmlns="http://www.w3.org/2000/svg" viewBox="0 0 720 720" role="img" aria-labelledby="title desc">
<title id="title">kale</title><desc id="desc">Clean product-only grocery illustration on a warm off-white background.</desc>
<defs><radialGradient id="bg" cx="50%" cy="42%" r="72%"><stop offset="0%" stop-color="#fffdf8"/><stop offset="100%" stop-color="#fff4e4"/></radialGradient><filter id="shadow" x="-20%" y="-20%" width="140%" height="150%"><feDropShadow dx="0" dy="22" stdDeviation="18" flood-color="#1b2a1f" flood-opacity=".16"/></filter></defs>
<rect width="720" height="720" fill="url(#bg)"/><ellipse cx="360" cy="540" rx="210" ry="38" fill="#d9c9ad" opacity=".22"/><g filter="url(#shadow)" transform="translate(18 -8)"><path d="M250 475 C 352.5 440, 352.5 215, 455 180" fill="none" stroke="#557c44" stroke-width="8" stroke-linecap="round"/><path d="M 320 360 C 388.25 318.6, 435.5 364.6, 320 406 C 204.5 364.6, 251.75 318.6, 320 360 Z" fill="#204d35" transform="rotate(-35 320 360)"/><path d="M 390 310 C 468 263.2, 522 315.2, 390 362 C 258 315.2, 312 263.2, 390 310 Z" fill="#367a4a" transform="rotate(-12 390 310)"/><path d="M 440 248 C 507.6 207.5, 554.4 252.5, 440 293 C 325.6 252.5, 372.4 207.5, 440 248 Z" fill="#5e9b60" transform="rotate(16 440 248)"/><path d="M 275 300 C 338.7 261.3, 382.8 304.3, 275 343 C 167.2 304.3, 211.3 261.3, 275 300 Z" fill="#204d35" transform="rotate(-70 275 300)"/><path d="M 360 220 C 418.5 185.8, 459 223.8, 360 258 C 261 223.8, 301.5 185.8, 360 220 Z" fill="#367a4a" transform="rotate(-35 360 220)"/></g></svg>