<svg xmlns="http://www.w3.org/2000/svg" viewBox="0 0 720 720" role="img" aria-labelledby="title desc">
<title id="title">kiwi gold</title><desc id="desc">Clean product-only grocery illustration on a warm off-white background.</desc>
<defs><radialGradient id="bg" cx="50%" cy="42%" r="72%"><stop offset="0%" stop-color="#fffdf8"/><stop offset="100%" stop-color="#fff4e4"/></radialGradient><filter id="shadow" x="-20%" y="-20%" width="140%" height="150%"><feDropShadow dx="0" dy="22" stdDeviation="18" flood-color="#1b2a1f" flood-opacity=".16"/></filter></defs>
<rect width="720" height="720" fill="url(#bg)"/><ellipse cx="360" cy="540" rx="210" ry="38" fill="#d9c9ad" opacity=".22"/><g filter="url(#shadow)" transform="translate(18 -8)"><ellipse cx="335" cy="340" rx="130" ry="105" fill="#c5a63b" opacity="1" transform="rotate(-8 335 340)"/><ellipse cx="395" cy="340" rx="92" ry="76" fill="#f0cf59" opacity="1" transform="rotate(8 395 340)"/><circle cx="395" cy="340" r="34" fill="#f7edb4"/><circle cx="449" cy="340" r="4" fill="#493f22"/><circle cx="443.6576483832269" cy="358.2145069835301" r="4" fill="#493f22"/><circle cx="428.68765726613873" cy="372.8250028251274" r="4" fill="#493f22"/><circle cx="407.05206206530784" cy="380.940583595858" r="4" fill="#493f22"/><circle cx="383.0317871141048" cy="380.95546092344176" r="4" fill="#493f22"/><circle cx="361.3796011058961" cy="372.8666911073205" r="4" fill="#493f22"/><circle cx="346.37971111207526" cy="358.27475757360014" r="4" fill="#493f22"/><circle cx="341.00006848671285" cy="340.06689142249246" r="4" fill="#493f22"/><circle cx="346.30511554378177" cy="321.8457898084551" r="4" fill="#493f22"/><circle cx="361.24516981208234" cy="307.21676871915986" r="4" fill="#493f22"/><circle cx="382.86411932587635" cy="299.07439757935515" r="4" fill="#493f22"/><circle cx="406.8843333485729" cy="299.0297656343409" r="4" fill="#493f22"/><circle cx="428.553055242417" cy="307.0917039783248" r="4" fill="#493f22"/><circle cx="443.5828060650757" cy="321.66503819107334" r="4" fill="#493f22"/></g></svg>