<svg xmlns="http://www.w3.org/2000/svg" viewBox="0 0 720 720" role="img" aria-labelledby="title desc">
<title id="title">leeks</title><desc id="desc">Clean product-only grocery illustration on a warm off-white background.</desc>
<defs><radialGradient id="bg" cx="50%" cy="42%" r="72%"><stop offset="0%" stop-color="#fffdf8"/><stop offset="100%" stop-color="#fff4e4"/></radialGradient><filter id="shadow" x="-20%" y="-20%" width="140%" height="150%"><feDropShadow dx="0" dy="22" stdDeviation="18" flood-color="#1b2a1f" flood-opacity=".16"/></filter></defs>
<rect width="720" height="720" fill="url(#bg)"/><ellipse cx="360" cy="540" rx="210" ry="38" fill="#d9c9ad" opacity=".22"/><g filter="url(#shadow)" transform="translate(18 -8)"><rect x="270" y="245" width="28" height="225" rx="14" fill="#f2f0d8" transform="rotate(-10 285 360)"/><path d="M285 255 C250 205 270 170 235 135" stroke="#9cbc68" stroke-width="16" fill="none" stroke-linecap="round"/><rect x="308" y="245" width="28" height="225" rx="14" fill="#f2f0d8" transform="rotate(-5 323 360)"/><path d="M323 255 C288 205 308 170 273 135" stroke="#9cbc68" stroke-width="16" fill="none" stroke-linecap="round"/><rect x="346" y="245" width="28" height="225" rx="14" fill="#9cbc68" transform="rotate(0 361 360)"/><path d="M361 255 C326 205 346 170 311 135" stroke="#9cbc68" stroke-width="16" fill="none" stroke-linecap="round"/><rect x="384" y="245" width="28" height="225" rx="14" fill="#9cbc68" transform="rotate(5 399 360)"/><path d="M399 255 C364 205 384 170 349 135" stroke="#9cbc68" stroke-width="16" fill="none" stroke-linecap="round"/><rect x="422" y="245" width="28" height="225" rx="14" fill="#457a4c" transform="rotate(10 437 360)"/><path d="M437 255 C402 205 422 170 387 135" stroke="#9cbc68" stroke-width="16" fill="none" stroke-linecap="round"/></g></svg>