<svg xmlns="http://www.w3.org/2000/svg" viewBox="0 0 720 720" role="img" aria-labelledby="title desc">
<title id="title">lemons</title><desc id="desc">Clean product-only grocery illustration on a warm off-white background.</desc>
<defs><radialGradient id="bg" cx="50%" cy="42%" r="72%"><stop offset="0%" stop-color="#fffdf8"/><stop offset="100%" stop-color="#fff4e4"/></radialGradient><filter id="shadow" x="-20%" y="-20%" width="140%" height="150%"><feDropShadow dx="0" dy="22" stdDeviation="18" flood-color="#1b2a1f" flood-opacity=".16"/></filter></defs>
<rect width="720" height="720" fill="url(#bg)"/><ellipse cx="360" cy="540" rx="210" ry="38" fill="#d9c9ad" opacity=".22"/><g filter="url(#shadow)" transform="translate(18 -8)"><ellipse cx="300" cy="325" rx="100" ry="96" fill="#f2c94c" opacity="1" transform="rotate(-8 300 325)"/><ellipse cx="425" cy="315" rx="112" ry="105" fill="#f7dc6f" opacity="1" transform="rotate(8 425 315)"/><ellipse cx="375" cy="402" rx="88" ry="72" fill="#6b8e23" opacity="1" transform="rotate(0 375 402)"/><path d="M 420 212 C 447.3 195.8, 466.2 213.8, 420 230 C 373.8 213.8, 392.7 195.8, 420 212 Z" fill="#6e8e35" transform="rotate(28 420 212)"/><ellipse cx="275" cy="285" rx="18" ry="34" fill="#fff4c8" opacity="0.32" transform="rotate(-35 275 285)"/></g></svg>