<svg xmlns="http://www.w3.org/2000/svg" viewBox="0 0 720 720" role="img" aria-labelledby="title desc">
<title id="title">lettuce butterhead</title><desc id="desc">Clean product-only grocery illustration on a warm off-white background.</desc>
<defs><radialGradient id="bg" cx="50%" cy="42%" r="72%"><stop offset="0%" stop-color="#fffdf8"/><stop offset="100%" stop-color="#fff4e4"/></radialGradient><filter id="shadow" x="-20%" y="-20%" width="140%" height="150%"><feDropShadow dx="0" dy="22" stdDeviation="18" flood-color="#1b2a1f" flood-opacity=".16"/></filter></defs>
<rect width="720" height="720" fill="url(#bg)"/><ellipse cx="360" cy="540" rx="210" ry="38" fill="#d9c9ad" opacity=".22"/><g filter="url(#shadow)" transform="translate(18 -8)"><ellipse cx="350" cy="355" rx="130" ry="112" fill="#8ebf62" opacity="1" transform="rotate(0 350 355)"/><path d="M 300 330 C 358.5 285, 399 335, 300 380 C 201 335, 241.5 285, 300 330 Z" fill="#b8d982" transform="rotate(-35 300 330)"/><path d="M 410 330 C 468.5 285, 509 335, 410 380 C 311 335, 351.5 285, 410 330 Z" fill="#d7edaa" transform="rotate(35 410 330)"/><path d="M 355 270 C 413.5 229.5, 454 274.5, 355 315 C 256 274.5, 296.5 229.5, 355 270 Z" fill="#b8d982" transform="rotate(0 355 270)"/><ellipse cx="352" cy="365" rx="70" ry="55" fill="#eef5c9" opacity="0.55" transform="rotate(0 352 365)"/></g></svg>