<svg xmlns="http://www.w3.org/2000/svg" viewBox="0 0 720 720" role="img" aria-labelledby="title desc">
<title id="title">mint</title><desc id="desc">Clean product-only grocery illustration on a warm off-white background.</desc>
<defs><radialGradient id="bg" cx="50%" cy="42%" r="72%"><stop offset="0%" stop-color="#fffdf8"/><stop offset="100%" stop-color="#fff4e4"/></radialGradient><filter id="shadow" x="-20%" y="-20%" width="140%" height="150%"><feDropShadow dx="0" dy="22" stdDeviation="18" flood-color="#1b2a1f" flood-opacity=".16"/></filter></defs>
<rect width="720" height="720" fill="url(#bg)"/><ellipse cx="360" cy="540" rx="210" ry="38" fill="#d9c9ad" opacity=".22"/><g filter="url(#shadow)" transform="translate(18 -8)"><path d="M355 460 C 342.5 425, 342.5 245, 330 210" fill="none" stroke="#557c44" stroke-width="4" stroke-linecap="round"/><path d="M 330 210 C 348.2 199.2, 360.8 211.2, 330 222 C 299.2 211.2, 311.8 199.2, 330 210 Z" fill="#4a9d63" transform="rotate(-28 330 210)"/><path d="M355 460 C 356.5 425, 356.5 245, 358 210" fill="none" stroke="#557c44" stroke-width="4" stroke-linecap="round"/><path d="M 358 210 C 376.2 199.2, 388.8 211.2, 358 222 C 327.2 211.2, 339.8 199.2, 358 210 Z" fill="#76bf7a" transform="rotate(28 358 210)"/><path d="M355 460 C 370.5 425, 370.5 245, 386 210" fill="none" stroke="#557c44" stroke-width="4" stroke-linecap="round"/><path d="M 386 210 C 404.2 199.2, 416.8 211.2, 386 222 C 355.2 211.2, 367.8 199.2, 386 210 Z" fill="#a8d98b" transform="rotate(-28 386 210)"/><path d="M355 460 C 384.5 425, 384.5 245, 414 210" fill="none" stroke="#557c44" stroke-width="4" stroke-linecap="round"/><path d="M 414 210 C 432.2 199.2, 444.8 211.2, 414 222 C 383.2 211.2, 395.8 199.2, 414 210 Z" fill="#4a9d63" transform="rotate(28 414 210)"/><path d="M355 460 C 342.5 425, 342.5 285, 330 250" fill="none" stroke="#557c44" stroke-width="4" stroke-linecap="round"/><path d="M 330 250 C 348.2 239.2, 360.8 251.2, 330 262 C 299.2 251.2, 311.8 239.2, 330 250 Z" fill="#76bf7a" transform="rotate(-28 330 250)"/><path d="M355 460 C 356.5 425, 356.5 285, 358 250" fill="none" stroke="#557c44" stroke-width="4" stroke-linecap="round"/><path d="M 358 250 C 376.2 239.2, 388.8 251.2, 358 262 C 327.2 251.2, 339.8 239.2, 358 250 Z" fill="#a8d98b" transform="rotate(28 358 250)"/><path d="M355 460 C 370.5 425, 370.5 285, 386 250" fill="none" stroke="#557c44" stroke-width="4" stroke-linecap="round"/><path d="M 386 250 C 404.2 239.2, 416.8 251.2, 386 262 C 355.2 251.2, 367.8 239.2, 386 250 Z" fill="#4a9d63" transform="rotate(-28 386 250)"/><path d="M355 460 C 384.5 425, 384.5 285, 414 250" fill="none" stroke="#557c44" stroke-width="4" stroke-linecap="round"/><path d="M 414 250 C 432.2 239.2, 444.8 251.2, 414 262 C 383.2 251.2, 395.8 239.2, 414 250 Z" fill="#76bf7a" transform="rotate(28 414 250)"/><path d="M355 460 C 342.5 425, 342.5 325, 330 290" fill="none" stroke="#557c44" stroke-width="4" stroke-linecap="round"/><path d="M 330 290 C 348.2 279.2, 360.8 291.2, 330 302 C 299.2 291.2, 311.8 279.2, 330 290 Z" fill="#a8d98b" transform="rotate(-28 330 290)"/><path d="M355 460 C 356.5 425, 356.5 325, 358 290" fill="none" stroke="#557c44" stroke-width="4" stroke-linecap="round"/><path d="M 358 290 C 376.2 279.2, 388.8 291.2, 358 302 C 327.2 291.2, 339.8 279.2, 358 290 Z" fill="#4a9d63" transform="rotate(28 358 290)"/><path d="M355 460 C 370.5 425, 370.5 325, 386 290" fill="none" stroke="#557c44" stroke-width="4" stroke-linecap="round"/><path d="M 386 290 C 404.2 279.2, 416.8 291.2, 386 302 C 355.2 291.2, 367.8 279.2, 386 290 Z" fill="#76bf7a" transform="rotate(-28 386 290)"/><path d="M355 460 C 384.5 425, 384.5 325, 414 290" fill="none" stroke="#557c44" stroke-width="4" stroke-linecap="round"/><path d="M 414 290 C 432.2 279.2, 444.8 291.2, 414 302 C 383.2 291.2, 395.8 279.2, 414 290 Z" fill="#a8d98b" transform="rotate(28 414 290)"/><path d="M355 460 C 342.5 425, 342.5 365, 330 330" fill="none" stroke="#557c44" stroke-width="4" stroke-linecap="round"/><path d="M 330 330 C 348.2 319.2, 360.8 331.2, 330 342 C 299.2 331.2, 311.8 319.2, 330 330 Z" fill="#4a9d63" transform="rotate(-28 330 330)"/><path d="M355 460 C 356.5 425, 356.5 365, 358 330" fill="none" stroke="#557c44" stroke-width="4" stroke-linecap="round"/><path d="M 358 330 C 376.2 319.2, 388.8 331.2, 358 342 C 327.2 331.2, 339.8 319.2, 358 330 Z" fill="#76bf7a" transform="rotate(28 358 330)"/><path d="M355 460 C 370.5 425, 370.5 365, 386 330" fill="none" stroke="#557c44" stroke-width="4" stroke-linecap="round"/><path d="M 386 330 C 404.2 319.2, 416.8 331.2, 386 342 C 355.2 331.2, 367.8 319.2, 386 330 Z" fill="#a8d98b" transform="rotate(-28 386 330)"/><path d="M355 460 C 384.5 425, 384.5 365, 414 330" fill="none" stroke="#557c44" stroke-width="4" stroke-linecap="round"/><path d="M 414 330 C 432.2 319.2, 444.8 331.2, 414 342 C 383.2 331.2, 395.8 319.2, 414 330 Z" fill="#4a9d63" transform="rotate(28 414 330)"/></g></svg>