<svg xmlns="http://www.w3.org/2000/svg" viewBox="0 0 720 720" role="img" aria-labelledby="title desc">
<title id="title">mushrooms chanterelle</title><desc id="desc">Clean product-only grocery illustration on a warm off-white background.</desc>
<defs><radialGradient id="bg" cx="50%" cy="42%" r="72%"><stop offset="0%" stop-color="#fffdf8"/><stop offset="100%" stop-color="#fff4e4"/></radialGradient><filter id="shadow" x="-20%" y="-20%" width="140%" height="150%"><feDropShadow dx="0" dy="22" stdDeviation="18" flood-color="#1b2a1f" flood-opacity=".16"/></filter></defs>
<rect width="720" height="720" fill="url(#bg)"/><ellipse cx="360" cy="540" rx="210" ry="38" fill="#d9c9ad" opacity=".22"/><g filter="url(#shadow)" transform="translate(0 0)"><ellipse cx="305" cy="260" rx="105" ry="60" fill="#d99b45" opacity="1" transform="rotate(0 305 260)"/><ellipse cx="430" cy="288" rx="95" ry="55" fill="#f0bd6a" opacity="1" transform="rotate(8 430 288)"/><path d="M280 290 C320 330 330 400 300 465 L380 465 C355 395 370 335 410 300Z" fill="#ead6b5"/><path d="M395 315 C430 355 425 410 395 462 L465 462 C445 405 455 350 490 318Z" fill="#f3dfc0"/></g></svg>