<svg xmlns="http://www.w3.org/2000/svg" viewBox="0 0 720 720" role="img" aria-labelledby="title desc">
<title id="title">peaches</title><desc id="desc">Clean product-only grocery illustration on a warm off-white background.</desc>
<defs><radialGradient id="bg" cx="50%" cy="42%" r="72%"><stop offset="0%" stop-color="#fffdf8"/><stop offset="100%" stop-color="#fff4e4"/></radialGradient><filter id="shadow" x="-20%" y="-20%" width="140%" height="150%"><feDropShadow dx="0" dy="22" stdDeviation="18" flood-color="#1b2a1f" flood-opacity=".16"/></filter></defs>
<rect width="720" height="720" fill="url(#bg)"/><ellipse cx="360" cy="540" rx="210" ry="38" fill="#d9c9ad" opacity=".22"/><g filter="url(#shadow)" transform="translate(0 0)"><ellipse cx="315" cy="335" rx="105" ry="115" fill="#f0a066" opacity="1" transform="rotate(-15 315 335)"/><ellipse cx="410" cy="335" rx="105" ry="115" fill="#f7c18a" opacity="1" transform="rotate(15 410 335)"/><path d="M365 225 C362 190 385 168 420 160" stroke="#7b5738" stroke-width="9" fill="none"/><path d="M 425 170 C 454.25 152, 474.5 172, 425 190 C 375.5 172, 395.75 152, 425 170 Z" fill="#7a9a44" transform="rotate(24 425 170)"/><ellipse cx="288" cy="305" rx="22" ry="43" fill="#fff1cf" opacity="0.25" transform="rotate(-30 288 305)"/></g></svg>