<svg xmlns="http://www.w3.org/2000/svg" viewBox="0 0 720 720" role="img" aria-labelledby="title desc">
<title id="title">pears conference</title><desc id="desc">Clean product-only grocery illustration on a warm off-white background.</desc>
<defs><radialGradient id="bg" cx="50%" cy="42%" r="72%"><stop offset="0%" stop-color="#fffdf8"/><stop offset="100%" stop-color="#fff4e4"/></radialGradient><filter id="shadow" x="-20%" y="-20%" width="140%" height="150%"><feDropShadow dx="0" dy="22" stdDeviation="18" flood-color="#1b2a1f" flood-opacity=".16"/></filter></defs>
<rect width="720" height="720" fill="url(#bg)"/><ellipse cx="360" cy="540" rx="210" ry="38" fill="#d9c9ad" opacity=".22"/><g filter="url(#shadow)" transform="translate(18 -8)"><path d="M360 190 C440 205 460 292 420 345 C488 430 430 505 352 498 C272 492 225 425 292 345 C255 292 280 205 360 190Z" fill="#b9c66b"/><path d="M375 180 C372 150 395 135 420 128" stroke="#7c5736" stroke-width="10" fill="none" stroke-linecap="round"/><path d="M 420 145 C 447.3 128.8, 466.2 146.8, 420 163 C 373.8 146.8, 392.7 128.8, 420 145 Z" fill="#768f40" transform="rotate(25 420 145)"/><ellipse cx="320" cy="280" rx="20" ry="42" fill="#fff3cf" opacity="0.26" transform="rotate(-30 320 280)"/></g></svg>