<svg xmlns="http://www.w3.org/2000/svg" viewBox="0 0 720 720" role="img" aria-labelledby="title desc">
<title id="title">radishes french</title><desc id="desc">Clean product-only grocery illustration on a warm off-white background.</desc>
<defs><radialGradient id="bg" cx="50%" cy="42%" r="72%"><stop offset="0%" stop-color="#fffdf8"/><stop offset="100%" stop-color="#fff4e4"/></radialGradient><filter id="shadow" x="-20%" y="-20%" width="140%" height="150%"><feDropShadow dx="0" dy="22" stdDeviation="18" flood-color="#1b2a1f" flood-opacity=".16"/></filter></defs>
<rect width="720" height="720" fill="url(#bg)"/><ellipse cx="360" cy="540" rx="210" ry="38" fill="#d9c9ad" opacity=".22"/><g filter="url(#shadow)" transform="translate(0 0)"><ellipse cx="330" cy="350" rx="78" ry="105" fill="#d94863" opacity="1" transform="rotate(-15 330 350)"/><ellipse cx="420" cy="350" rx="74" ry="102" fill="#f5f0e8" opacity="1" transform="rotate(15 420 350)"/><path d="M 330 220 C 363.8 198.4, 387.2 222.4, 330 244 C 272.8 222.4, 296.2 198.4, 330 220 Z" fill="#6fa045" transform="rotate(-38 330 220)"/><path d="M 385 205 C 422.7 180.7, 448.8 207.7, 385 232 C 321.2 207.7, 347.3 180.7, 385 205 Z" fill="#78aa4e" transform="rotate(0 385 205)"/><path d="M 440 220 C 472.5 197.5, 495 222.5, 440 245 C 385 222.5, 407.5 197.5, 440 220 Z" fill="#5f923e" transform="rotate(35 440 220)"/><path d="M340 452 C330 482 310 505 285 520" stroke="#f5f0e8" stroke-width="8" fill="none" stroke-linecap="round"/></g></svg>