<svg xmlns="http://www.w3.org/2000/svg" viewBox="0 0 720 720" role="img" aria-labelledby="title desc">
<title id="title">rainbow carrots</title><desc id="desc">Clean product-only grocery illustration on a warm off-white background.</desc>
<defs><radialGradient id="bg" cx="50%" cy="42%" r="72%"><stop offset="0%" stop-color="#fffdf8"/><stop offset="100%" stop-color="#fff4e4"/></radialGradient><filter id="shadow" x="-20%" y="-20%" width="140%" height="150%"><feDropShadow dx="0" dy="22" stdDeviation="18" flood-color="#1b2a1f" flood-opacity=".16"/></filter></defs>
<rect width="720" height="720" fill="url(#bg)"/><ellipse cx="360" cy="540" rx="210" ry="38" fill="#d9c9ad" opacity=".22"/><g filter="url(#shadow)" transform="translate(0 0)"><path d="M 330 175 C 354.7 157, 371.8 177, 330 195 C 288.2 177, 305.3 157, 330 175 Z" fill="#589543" transform="rotate(-30 330 175)"/><path d="M 365 165 C 394.9 145.2, 415.6 167.2, 365 187 C 314.4 167.2, 335.1 145.2, 365 165 Z" fill="#6ca84e" transform="rotate(0 365 165)"/><path d="M 400 176 C 424.7 158, 441.8 178, 400 196 C 358.2 178, 375.3 158, 400 176 Z" fill="#4f8b3f" transform="rotate(30 400 176)"/><path d="M260 230 C330 210 440 210 500 235 C465 325 420 430 360 500 C320 420 285 320 260 230Z" fill="#e66f2e"/><path d="M330 235 C380 222 440 230 470 250 C430 315 390 390 355 440 C340 370 330 300 330 235Z" fill="#7f3b8f" opacity=".9"/></g></svg>