<svg xmlns="http://www.w3.org/2000/svg" viewBox="0 0 720 720" role="img" aria-labelledby="title desc">
<title id="title">rosemary</title><desc id="desc">Clean product-only grocery illustration on a warm off-white background.</desc>
<defs><radialGradient id="bg" cx="50%" cy="42%" r="72%"><stop offset="0%" stop-color="#fffdf8"/><stop offset="100%" stop-color="#fff4e4"/></radialGradient><filter id="shadow" x="-20%" y="-20%" width="140%" height="150%"><feDropShadow dx="0" dy="22" stdDeviation="18" flood-color="#1b2a1f" flood-opacity=".16"/></filter></defs>
<rect width="720" height="720" fill="url(#bg)"/><ellipse cx="360" cy="540" rx="210" ry="38" fill="#d9c9ad" opacity=".22"/><g filter="url(#shadow)" transform="translate(18 -8)"><path d="M290 470 C 362.5 435, 362.5 220, 435 185" fill="none" stroke="#557c44" stroke-width="7" stroke-linecap="round"/><path d="M 305 435 C 323.2 426.9, 335.8 435.9, 305 444 C 274.2 435.9, 286.8 426.9, 305 435 Z" fill="#315f4c" transform="rotate(-40 305 435)"/><path d="M 312 421 C 330.2 412.9, 342.8 421.9, 312 430 C 281.2 421.9, 293.8 412.9, 312 421 Z" fill="#5f846f" transform="rotate(45 312 421)"/><path d="M 319 407 C 337.2 398.9, 349.8 407.9, 319 416 C 288.2 407.9, 300.8 398.9, 319 407 Z" fill="#8fa58d" transform="rotate(-40 319 407)"/><path d="M 326 393 C 344.2 384.9, 356.8 393.9, 326 402 C 295.2 393.9, 307.8 384.9, 326 393 Z" fill="#315f4c" transform="rotate(45 326 393)"/><path d="M 333 379 C 351.2 370.9, 363.8 379.9, 333 388 C 302.2 379.9, 314.8 370.9, 333 379 Z" fill="#5f846f" transform="rotate(-40 333 379)"/><path d="M 340 365 C 358.2 356.9, 370.8 365.9, 340 374 C 309.2 365.9, 321.8 356.9, 340 365 Z" fill="#8fa58d" transform="rotate(45 340 365)"/><path d="M 347 351 C 365.2 342.9, 377.8 351.9, 347 360 C 316.2 351.9, 328.8 342.9, 347 351 Z" fill="#315f4c" transform="rotate(-40 347 351)"/><path d="M 354 337 C 372.2 328.9, 384.8 337.9, 354 346 C 323.2 337.9, 335.8 328.9, 354 337 Z" fill="#5f846f" transform="rotate(45 354 337)"/><path d="M 361 323 C 379.2 314.9, 391.8 323.9, 361 332 C 330.2 323.9, 342.8 314.9, 361 323 Z" fill="#8fa58d" transform="rotate(-40 361 323)"/><path d="M 368 309 C 386.2 300.9, 398.8 309.9, 368 318 C 337.2 309.9, 349.8 300.9, 368 309 Z" fill="#315f4c" transform="rotate(45 368 309)"/><path d="M 375 295 C 393.2 286.9, 405.8 295.9, 375 304 C 344.2 295.9, 356.8 286.9, 375 295 Z" fill="#5f846f" transform="rotate(-40 375 295)"/><path d="M 382 281 C 400.2 272.9, 412.8 281.9, 382 290 C 351.2 281.9, 363.8 272.9, 382 281 Z" fill="#8fa58d" transform="rotate(45 382 281)"/><path d="M 389 267 C 407.2 258.9, 419.8 267.9, 389 276 C 358.2 267.9, 370.8 258.9, 389 267 Z" fill="#315f4c" transform="rotate(-40 389 267)"/><path d="M 396 253 C 414.2 244.9, 426.8 253.9, 396 262 C 365.2 253.9, 377.8 244.9, 396 253 Z" fill="#5f846f" transform="rotate(45 396 253)"/><path d="M 403 239 C 421.2 230.9, 433.8 239.9, 403 248 C 372.2 239.9, 384.8 230.9, 403 239 Z" fill="#8fa58d" transform="rotate(-40 403 239)"/><path d="M 410 225 C 428.2 216.9, 440.8 225.9, 410 234 C 379.2 225.9, 391.8 216.9, 410 225 Z" fill="#315f4c" transform="rotate(45 410 225)"/><path d="M 417 211 C 435.2 202.9, 447.8 211.9, 417 220 C 386.2 211.9, 398.8 202.9, 417 211 Z" fill="#5f846f" transform="rotate(-40 417 211)"/><path d="M 424 197 C 442.2 188.9, 454.8 197.9, 424 206 C 393.2 197.9, 405.8 188.9, 424 197 Z" fill="#8fa58d" transform="rotate(45 424 197)"/></g></svg>