<svg xmlns="http://www.w3.org/2000/svg" viewBox="0 0 720 720" role="img" aria-labelledby="title desc">
<title id="title">strawberries</title><desc id="desc">Clean product-only grocery illustration on a warm off-white background.</desc>
<defs><radialGradient id="bg" cx="50%" cy="42%" r="72%"><stop offset="0%" stop-color="#fffdf8"/><stop offset="100%" stop-color="#fff4e4"/></radialGradient><filter id="shadow" x="-20%" y="-20%" width="140%" height="150%"><feDropShadow dx="0" dy="22" stdDeviation="18" flood-color="#1b2a1f" flood-opacity=".16"/></filter></defs>
<rect width="720" height="720" fill="url(#bg)"/><ellipse cx="360" cy="540" rx="210" ry="38" fill="#d9c9ad" opacity=".22"/><g filter="url(#shadow)" transform="translate(18 -8)"><ellipse cx="295" cy="320" rx="82" ry="105" fill="#d7333f" opacity="1" transform="rotate(-12 295 320)"/><ellipse cx="405" cy="315" rx="88" ry="112" fill="#f05c66" opacity="1" transform="rotate(12 405 315)"/><ellipse cx="355" cy="405" rx="92" ry="70" fill="#d7333f" opacity="1" transform="rotate(0 355 405)"/><path d="M 350 218 C 374.7 201.8, 391.8 219.8, 350 236 C 308.2 219.8, 325.3 201.8, 350 218 Z" fill="#5f923e" transform="rotate(-10 350 218)"/><path d="M 390 226 C 412.1 211.6, 427.4 227.6, 390 242 C 352.6 227.6, 367.9 211.6, 390 226 Z" fill="#6ba247" transform="rotate(30 390 226)"/><ellipse cx="265" cy="285" rx="4" ry="7" fill="#ffe2b8" opacity="0.8" transform="rotate(20 265 285)"/><ellipse cx="297" cy="285" rx="4" ry="7" fill="#ffe2b8" opacity="0.8" transform="rotate(20 297 285)"/><ellipse cx="329" cy="285" rx="4" ry="7" fill="#ffe2b8" opacity="0.8" transform="rotate(20 329 285)"/><ellipse cx="361" cy="285" rx="4" ry="7" fill="#ffe2b8" opacity="0.8" transform="rotate(20 361 285)"/><ellipse cx="393" cy="285" rx="4" ry="7" fill="#ffe2b8" opacity="0.8" transform="rotate(20 393 285)"/><ellipse cx="425" cy="285" rx="4" ry="7" fill="#ffe2b8" opacity="0.8" transform="rotate(20 425 285)"/><ellipse cx="265" cy="339" rx="4" ry="7" fill="#ffe2b8" opacity="0.8" transform="rotate(20 265 339)"/><ellipse cx="297" cy="339" rx="4" ry="7" fill="#ffe2b8" opacity="0.8" transform="rotate(20 297 339)"/><ellipse cx="329" cy="339" rx="4" ry="7" fill="#ffe2b8" opacity="0.8" transform="rotate(20 329 339)"/><ellipse cx="361" cy="339" rx="4" ry="7" fill="#ffe2b8" opacity="0.8" transform="rotate(20 361 339)"/><ellipse cx="393" cy="339" rx="4" ry="7" fill="#ffe2b8" opacity="0.8" transform="rotate(20 393 339)"/><ellipse cx="425" cy="339" rx="4" ry="7" fill="#ffe2b8" opacity="0.8" transform="rotate(20 425 339)"/><ellipse cx="265" cy="393" rx="4" ry="7" fill="#ffe2b8" opacity="0.8" transform="rotate(20 265 393)"/><ellipse cx="297" cy="393" rx="4" ry="7" fill="#ffe2b8" opacity="0.8" transform="rotate(20 297 393)"/><ellipse cx="329" cy="393" rx="4" ry="7" fill="#ffe2b8" opacity="0.8" transform="rotate(20 329 393)"/><ellipse cx="361" cy="393" rx="4" ry="7" fill="#ffe2b8" opacity="0.8" transform="rotate(20 361 393)"/><ellipse cx="393" cy="393" rx="4" ry="7" fill="#ffe2b8" opacity="0.8" transform="rotate(20 393 393)"/><ellipse cx="425" cy="393" rx="4" ry="7" fill="#ffe2b8" opacity="0.8" transform="rotate(20 425 393)"/></g></svg>